<?xml version="1.0" encoding="iso-8859-1"?>
<!-- Generator: Adobe Illustrator 19.1.0, SVG Export Plug-In . SVG Version: 6.00 Build 0)  -->
<svg version="1.1" id="Capa_1" xmlns="http://www.w3.org/2000/svg" xmlns:xlink="http://www.w3.org/1999/xlink" x="0px" y="0px"
	 viewBox="0 0 483.507 483.507" style="enable-background:new 0 0 483.507 483.507;" xml:space="preserve">
<path d="M241.754,270.039c39.714,0,72.01-32.297,72.01-72.01s-32.297-72.01-72.01-72.01s-72.01,32.297-72.01,72.01
	S202.04,270.039,241.754,270.039z M241.754,144.021c29.776,0,54.008,24.231,54.008,54.008s-24.231,54.008-54.008,54.008
	s-54.008-24.232-54.008-54.008S211.978,144.021,241.754,144.021z"/>
<path d="M439.909,393.014c-18.128-19.653-39.33-36.529-63.127-50.281c38.737-36.171,63.001-87.655,63.001-144.704
	C439.783,88.843,350.94,0,241.754,0S43.725,88.842,43.725,198.028c0,57.045,24.26,108.527,62.993,144.697
	c-23.794,13.759-44.992,30.62-63.119,50.271c-15.554,16.851-15.536,43.297,0,60.183c6.211,6.769,12.818,13.232,19.605,19.263
	c8.263,7.327,18.884,11.036,29.452,11.036c9.578,0,19.119-3.025,26.896-9.128c35.177-27.67,77.447-42.288,122.202-42.288
	s87.025,14.618,122.202,42.27c16.418,12.926,40.632,12.098,56.348-1.872c6.787-6.031,13.394-12.494,19.605-19.245
	C455.445,436.292,455.463,409.864,439.909,393.014z M331.149,41.813c12.107,72.568,18.621,134.412,18.621,156.216
	c0,59.57-48.444,108.015-108.015,108.015s-108.016-48.445-108.016-108.016c0-21.804,6.515-83.65,18.622-156.22
	c26.355-15.14,56.881-23.805,89.393-23.805C274.265,18.003,304.792,26.67,331.149,41.813z M61.728,198.029
	c0-57.936,27.518-109.56,70.162-142.511c-10.616,66.75-16.154,121.161-16.154,142.511c0,69.472,56.546,126.018,126.018,126.018
	s126.018-56.546,126.019-126.017c0-21.334-5.537-75.742-16.153-142.505c42.64,32.952,70.16,84.572,70.16,142.504
	c0,99.266-80.76,180.026-180.026,180.026S61.728,297.295,61.728,198.029z M426.641,441.027c-5.815,6.301-11.954,12.35-18.309,17.967
	c-9.308,8.263-23.62,8.803-33.269,1.188c-38.381-30.173-84.468-46.123-133.309-46.123s-94.945,15.951-133.327,46.123
	c-9.632,7.579-23.926,7.075-33.251-1.206c-6.355-5.617-12.512-11.666-18.309-17.985c-9.271-10.045-9.271-25.762-0.036-35.789
	c18.32-19.854,39.985-36.661,64.523-50.07c33.389,25.65,75.143,40.925,120.4,40.925c45.251,0,86.999-15.271,120.386-40.914
	c24.529,13.41,46.214,30.22,64.537,50.077C435.912,415.229,435.912,430.946,426.641,441.027z"/>
<g>
</g>
<g>
</g>
<g>
</g>
<g>
</g>
<g>
</g>
<g>
</g>
<g>
</g>
<g>
</g>
<g>
</g>
<g>
</g>
<g>
</g>
<g>
</g>
<g>
</g>
<g>
</g>
<g>
</g>
</svg>
